<svg width="351" height="62" viewBox="0 0 351 62" fill="none" xmlns="http://www.w3.org/2000/svg">
<g filter="url(#filter0_dd_1_781)">
<rect x="3" y="3" width="345" height="54" rx="10" fill="white"/>
<rect x="54.5" y="3" width="242" height="54" rx="10" fill="white"/>
<rect width="24" height="24" transform="translate(69.5 18)" fill="white"/>
<path fill-rule="evenodd" clip-rule="evenodd" d="M92.54 30.2613C92.54 29.4459 92.4668 28.6618 92.3309 27.9091H81.5V32.3575H87.6891C87.4225 33.795 86.6123 35.0129 85.3943 35.8284V38.7138H89.1109C91.2855 36.7118 92.54 33.7636 92.54 30.2613Z" fill="#4285F4"/>
<path fill-rule="evenodd" clip-rule="evenodd" d="M81.4999 41.4998C84.6049 41.4998 87.2081 40.47 89.1108 38.7137L85.3942 35.8282C84.3644 36.5182 83.0472 36.9259 81.4999 36.9259C78.5047 36.9259 75.9694 34.903 75.0651 32.1848H71.2231V35.1644C73.1154 38.9228 77.0044 41.4998 81.4999 41.4998Z" fill="#34A853"/>
<path fill-rule="evenodd" clip-rule="evenodd" d="M75.0652 32.1851C74.8352 31.4951 74.7045 30.7581 74.7045 30.0001C74.7045 29.2422 74.8352 28.5051 75.0652 27.8151V24.8356H71.2232C70.4443 26.3881 70 28.1444 70 30.0001C70 31.8558 70.4443 33.6122 71.2232 35.1647L75.0652 32.1851Z" fill="#FBBC05"/>
<path fill-rule="evenodd" clip-rule="evenodd" d="M81.4999 23.0739C83.1883 23.0739 84.7042 23.6541 85.896 24.7936L89.1944 21.4952C87.2029 19.6395 84.5997 18.5 81.4999 18.5C77.0044 18.5 73.1154 21.077 71.2231 24.8355L75.0651 27.815C75.9694 25.0968 78.5047 23.0739 81.4999 23.0739Z" fill="#EA4335"/>
<path d="M117.377 32.3379C117.377 31.7129 117.156 31.2311 116.713 30.8926C116.277 30.554 115.486 30.2122 114.34 29.8672C113.194 29.5221 112.283 29.138 111.605 28.7148C110.31 27.901 109.662 26.8398 109.662 25.5312C109.662 24.3854 110.128 23.4414 111.059 22.6992C111.996 21.957 113.21 21.5859 114.701 21.5859C115.691 21.5859 116.573 21.7682 117.348 22.1328C118.122 22.4974 118.731 23.0182 119.174 23.6953C119.617 24.3659 119.838 25.1113 119.838 25.9316H117.377C117.377 25.1895 117.143 24.61 116.674 24.1934C116.212 23.7702 115.548 23.5586 114.682 23.5586C113.874 23.5586 113.246 23.7311 112.797 24.0762C112.354 24.4212 112.133 24.903 112.133 25.5215C112.133 26.0423 112.374 26.4785 112.855 26.8301C113.337 27.1751 114.132 27.5137 115.238 27.8457C116.345 28.1712 117.234 28.5456 117.904 28.9688C118.575 29.3854 119.066 29.8672 119.379 30.4141C119.691 30.9544 119.848 31.5892 119.848 32.3184C119.848 33.5033 119.392 34.4473 118.48 35.1504C117.576 35.847 116.345 36.1953 114.789 36.1953C113.76 36.1953 112.813 36.0065 111.947 35.6289C111.088 35.2448 110.417 34.7174 109.936 34.0469C109.46 33.3763 109.223 32.5951 109.223 31.7031H111.693C111.693 32.5104 111.96 33.1354 112.494 33.5781C113.028 34.0208 113.793 34.2422 114.789 34.2422C115.648 34.2422 116.293 34.0697 116.723 33.7246C117.159 33.373 117.377 32.9108 117.377 32.3379ZM124.311 36H121.938V25.4336H124.311V36ZM121.791 22.6895C121.791 22.3249 121.905 22.0221 122.133 21.7812C122.367 21.5404 122.699 21.4199 123.129 21.4199C123.559 21.4199 123.891 21.5404 124.125 21.7812C124.359 22.0221 124.477 22.3249 124.477 22.6895C124.477 23.0475 124.359 23.347 124.125 23.5879C123.891 23.8223 123.559 23.9395 123.129 23.9395C122.699 23.9395 122.367 23.8223 122.133 23.5879C121.905 23.347 121.791 23.0475 121.791 22.6895ZM126.488 30.6387C126.488 28.998 126.872 27.6895 127.641 26.7129C128.415 25.7298 129.441 25.2383 130.717 25.2383C131.921 25.2383 132.868 25.6582 133.559 26.498L133.666 25.4336H135.805V35.6777C135.805 37.0645 135.372 38.1582 134.506 38.959C133.646 39.7598 132.484 40.1602 131.02 40.1602C130.245 40.1602 129.486 39.9974 128.744 39.6719C128.008 39.3529 127.449 38.9329 127.064 38.4121L128.188 36.9863C128.917 37.8522 129.815 38.2852 130.883 38.2852C131.671 38.2852 132.292 38.0703 132.748 37.6406C133.204 37.2174 133.432 36.5924 133.432 35.7656V35.0527C132.748 35.8145 131.837 36.1953 130.697 36.1953C129.46 36.1953 128.448 35.7038 127.66 34.7207C126.879 33.7376 126.488 32.377 126.488 30.6387ZM128.852 30.8438C128.852 31.9049 129.066 32.7415 129.496 33.3535C129.932 33.959 130.535 34.2617 131.303 34.2617C132.26 34.2617 132.969 33.8516 133.432 33.0312V28.3828C132.982 27.582 132.279 27.1816 131.322 27.1816C130.541 27.1816 129.932 27.4909 129.496 28.1094C129.066 28.7279 128.852 29.6393 128.852 30.8438ZM140.453 25.4336L140.521 26.6543C141.303 25.7103 142.328 25.2383 143.598 25.2383C145.798 25.2383 146.918 26.498 146.957 29.0176V36H144.584V29.1543C144.584 28.4837 144.438 27.9889 144.145 27.6699C143.858 27.3444 143.386 27.1816 142.729 27.1816C141.771 27.1816 141.059 27.6146 140.59 28.4805V36H138.217V25.4336H140.453ZM157.201 36H154.74V21.7812H157.201V36ZM162.211 25.4336L162.279 26.6543C163.061 25.7103 164.086 25.2383 165.355 25.2383C167.556 25.2383 168.676 26.498 168.715 29.0176V36H166.342V29.1543C166.342 28.4837 166.195 27.9889 165.902 27.6699C165.616 27.3444 165.144 27.1816 164.486 27.1816C163.529 27.1816 162.816 27.6146 162.348 28.4805V36H159.975V25.4336H162.211ZM185.404 32.7285L187.084 25.4336H189.398L186.518 36H184.564L182.299 28.7441L180.072 36H178.119L175.229 25.4336H177.543L179.252 32.6504L181.42 25.4336H183.207L185.404 32.7285ZM193.51 36H191.137V25.4336H193.51V36ZM190.99 22.6895C190.99 22.3249 191.104 22.0221 191.332 21.7812C191.566 21.5404 191.898 21.4199 192.328 21.4199C192.758 21.4199 193.09 21.5404 193.324 21.7812C193.559 22.0221 193.676 22.3249 193.676 22.6895C193.676 23.0475 193.559 23.347 193.324 23.5879C193.09 23.8223 192.758 23.9395 192.328 23.9395C191.898 23.9395 191.566 23.8223 191.332 23.5879C191.104 23.347 190.99 23.0475 190.99 22.6895ZM199.076 22.8652V25.4336H200.941V27.1914H199.076V33.0898C199.076 33.4935 199.154 33.7865 199.311 33.9688C199.473 34.1445 199.76 34.2324 200.17 34.2324C200.443 34.2324 200.72 34.1999 201 34.1348V35.9707C200.46 36.1204 199.939 36.1953 199.438 36.1953C197.615 36.1953 196.703 35.1895 196.703 33.1777V27.1914H194.965V25.4336H196.703V22.8652H199.076ZM205.102 26.5859C205.876 25.6875 206.856 25.2383 208.041 25.2383C210.294 25.2383 211.436 26.5241 211.469 29.0957V36H209.096V29.1836C209.096 28.4544 208.936 27.9401 208.617 27.6406C208.305 27.3346 207.842 27.1816 207.23 27.1816C206.28 27.1816 205.57 27.6048 205.102 28.4512V36H202.729V21H205.102V26.5859ZM229.984 34.1543C229.47 34.8249 228.757 35.3327 227.846 35.6777C226.934 36.0228 225.899 36.1953 224.74 36.1953C223.549 36.1953 222.494 35.9251 221.576 35.3848C220.658 34.8444 219.949 34.0729 219.447 33.0703C218.952 32.0612 218.695 30.8861 218.676 29.5449V28.4316C218.676 26.2832 219.19 24.6068 220.219 23.4023C221.247 22.1914 222.683 21.5859 224.525 21.5859C226.107 21.5859 227.364 21.9766 228.295 22.7578C229.226 23.5391 229.786 24.6654 229.975 26.1367H227.553C227.279 24.4245 226.286 23.5684 224.574 23.5684C223.467 23.5684 222.624 23.9688 222.045 24.7695C221.472 25.5638 221.176 26.7324 221.156 28.2754V29.3691C221.156 30.9056 221.479 32.1003 222.123 32.9531C222.774 33.7995 223.676 34.2227 224.828 34.2227C226.091 34.2227 226.99 33.9362 227.523 33.3633V30.5801H224.594V28.7051H229.984V34.1543ZM232.025 30.6191C232.025 29.584 232.23 28.653 232.641 27.8262C233.051 26.9928 233.627 26.3548 234.369 25.9121C235.111 25.4629 235.964 25.2383 236.928 25.2383C238.354 25.2383 239.509 25.6973 240.395 26.6152C241.286 27.5332 241.768 28.7507 241.84 30.2676L241.85 30.8242C241.85 31.8659 241.648 32.7969 241.244 33.6172C240.847 34.4375 240.274 35.0723 239.525 35.5215C238.783 35.9707 237.924 36.1953 236.947 36.1953C235.456 36.1953 234.262 35.7005 233.363 34.7109C232.471 33.7148 232.025 32.39 232.025 30.7363V30.6191ZM234.398 30.8242C234.398 31.9115 234.623 32.7643 235.072 33.3828C235.521 33.9948 236.146 34.3008 236.947 34.3008C237.748 34.3008 238.37 33.9883 238.812 33.3633C239.262 32.7383 239.486 31.8236 239.486 30.6191C239.486 29.5514 239.255 28.7051 238.793 28.0801C238.337 27.4551 237.715 27.1426 236.928 27.1426C236.153 27.1426 235.538 27.4518 235.082 28.0703C234.626 28.6823 234.398 29.6003 234.398 30.8242ZM243.412 30.6191C243.412 29.584 243.617 28.653 244.027 27.8262C244.438 26.9928 245.014 26.3548 245.756 25.9121C246.498 25.4629 247.351 25.2383 248.314 25.2383C249.74 25.2383 250.896 25.6973 251.781 26.6152C252.673 27.5332 253.155 28.7507 253.227 30.2676L253.236 30.8242C253.236 31.8659 253.035 32.7969 252.631 33.6172C252.234 34.4375 251.661 35.0723 250.912 35.5215C250.17 35.9707 249.311 36.1953 248.334 36.1953C246.843 36.1953 245.648 35.7005 244.75 34.7109C243.858 33.7148 243.412 32.39 243.412 30.7363V30.6191ZM245.785 30.8242C245.785 31.9115 246.01 32.7643 246.459 33.3828C246.908 33.9948 247.533 34.3008 248.334 34.3008C249.135 34.3008 249.757 33.9883 250.199 33.3633C250.648 32.7383 250.873 31.8236 250.873 30.6191C250.873 29.5514 250.642 28.7051 250.18 28.0801C249.724 27.4551 249.102 27.1426 248.314 27.1426C247.54 27.1426 246.924 27.4518 246.469 28.0703C246.013 28.6823 245.785 29.6003 245.785 30.8242ZM254.828 30.6387C254.828 28.998 255.212 27.6895 255.98 26.7129C256.755 25.7298 257.781 25.2383 259.057 25.2383C260.261 25.2383 261.208 25.6582 261.898 26.498L262.006 25.4336H264.145V35.6777C264.145 37.0645 263.712 38.1582 262.846 38.959C261.986 39.7598 260.824 40.1602 259.359 40.1602C258.585 40.1602 257.826 39.9974 257.084 39.6719C256.348 39.3529 255.788 38.9329 255.404 38.4121L256.527 36.9863C257.257 37.8522 258.155 38.2852 259.223 38.2852C260.01 38.2852 260.632 38.0703 261.088 37.6406C261.544 37.2174 261.771 36.5924 261.771 35.7656V35.0527C261.088 35.8145 260.176 36.1953 259.037 36.1953C257.8 36.1953 256.788 35.7038 256 34.7207C255.219 33.7376 254.828 32.377 254.828 30.6387ZM257.191 30.8438C257.191 31.9049 257.406 32.7415 257.836 33.3535C258.272 33.959 258.874 34.2617 259.643 34.2617C260.6 34.2617 261.309 33.8516 261.771 33.0312V28.3828C261.322 27.582 260.619 27.1816 259.662 27.1816C258.881 27.1816 258.272 27.4909 257.836 28.1094C257.406 28.7279 257.191 29.6393 257.191 30.8438ZM269.115 36H266.742V21H269.115V36ZM276.361 36.1953C274.857 36.1953 273.637 35.7233 272.699 34.7793C271.768 33.8288 271.303 32.5658 271.303 30.9902V30.6973C271.303 29.6426 271.505 28.7018 271.908 27.875C272.318 27.0417 272.891 26.3939 273.627 25.9316C274.363 25.4694 275.183 25.2383 276.088 25.2383C277.527 25.2383 278.637 25.6973 279.418 26.6152C280.206 27.5332 280.6 28.832 280.6 30.5117V31.4688H273.695C273.767 32.3411 274.057 33.0312 274.564 33.5391C275.079 34.0469 275.723 34.3008 276.498 34.3008C277.585 34.3008 278.471 33.8613 279.154 32.9824L280.434 34.2031C280.01 34.8346 279.444 35.3262 278.734 35.6777C278.031 36.0228 277.24 36.1953 276.361 36.1953ZM276.078 27.1426C275.427 27.1426 274.9 27.3704 274.496 27.8262C274.099 28.2819 273.845 28.9167 273.734 29.7305H278.256V29.5547C278.204 28.7604 277.992 28.1615 277.621 27.7578C277.25 27.3477 276.736 27.1426 276.078 27.1426Z" fill="black" fill-opacity="0.54"/>
</g>
<defs>
<filter id="filter0_dd_1_781" x="0" y="0" width="351" height="62" filterUnits="userSpaceOnUse" color-interpolation-filters="sRGB">
<feFlood flood-opacity="0" result="BackgroundImageFix"/>
<feColorMatrix in="SourceAlpha" type="matrix" values="0 0 0 0 0 0 0 0 0 0 0 0 0 0 0 0 0 0 127 0" result="hardAlpha"/>
<feOffset dy="2"/>
<feGaussianBlur stdDeviation="1.5"/>
<feColorMatrix type="matrix" values="0 0 0 0 0 0 0 0 0 0 0 0 0 0 0 0 0 0 0.168 0"/>
<feBlend mode="normal" in2="BackgroundImageFix" result="effect1_dropShadow_1_781"/>
<feColorMatrix in="SourceAlpha" type="matrix" values="0 0 0 0 0 0 0 0 0 0 0 0 0 0 0 0 0 0 127 0" result="hardAlpha"/>
<feOffset/>
<feGaussianBlur stdDeviation="1.5"/>
<feColorMatrix type="matrix" values="0 0 0 0 0 0 0 0 0 0 0 0 0 0 0 0 0 0 0.084 0"/>
<feBlend mode="normal" in2="effect1_dropShadow_1_781" result="effect2_dropShadow_1_781"/>
<feBlend mode="normal" in="SourceGraphic" in2="effect2_dropShadow_1_781" result="shape"/>
</filter>
</defs>
</svg>
