<svg width="345" height="54" viewBox="0 0 345 54" fill="none" xmlns="http://www.w3.org/2000/svg">
<rect width="345" height="54" rx="10" fill="#1877F2"/>
<rect x="32.5" width="281" height="54" rx="10" fill="#1877F2"/>
<rect width="24" height="24" transform="translate(47.5 15)" fill="#1877F2"/>
<path d="M71 27.0699C71 20.7186 65.8513 15.5699 59.5 15.5699C53.1487 15.5699 48 20.7186 48 27.0699C48 32.8099 52.2054 37.5674 57.7031 38.4302V30.3941H54.7832V27.0699H57.7031V24.5363C57.7031 21.6541 59.42 20.0621 62.0468 20.0621C63.305 20.0621 64.6211 20.2867 64.6211 20.2867V23.1168H63.171C61.7424 23.1168 61.2969 24.0032 61.2969 24.9127V27.0699H64.4863L63.9765 30.3941H61.2969V38.4302C66.7946 37.5674 71 32.8099 71 27.0699Z" fill="white"/>
<path d="M90.2012 28.5566C90.2923 29.2142 90.4714 29.7057 90.7383 30.0312C91.2266 30.6237 92.0632 30.9199 93.248 30.9199C93.9577 30.9199 94.5339 30.8418 94.9766 30.6855C95.8164 30.3861 96.2363 29.8294 96.2363 29.0156C96.2363 28.5404 96.028 28.1725 95.6113 27.9121C95.1947 27.6582 94.5404 27.4336 93.6484 27.2383L92.125 26.8965C90.6276 26.5579 89.5924 26.1901 89.0195 25.793C88.0495 25.1289 87.5645 24.0905 87.5645 22.6777C87.5645 21.3887 88.0332 20.3177 88.9707 19.4648C89.9082 18.612 91.2852 18.1855 93.1016 18.1855C94.6185 18.1855 95.9108 18.5892 96.9785 19.3965C98.0527 20.1973 98.6159 21.3626 98.668 22.8926H95.7773C95.7253 22.0267 95.3477 21.4115 94.6445 21.0469C94.1758 20.806 93.5931 20.6855 92.8965 20.6855C92.1217 20.6855 91.5033 20.8418 91.041 21.1543C90.5788 21.4668 90.3477 21.903 90.3477 22.4629C90.3477 22.9772 90.5755 23.3613 91.0312 23.6152C91.3242 23.7845 91.9492 23.9831 92.9062 24.2109L95.3867 24.8066C96.474 25.0671 97.2943 25.4154 97.8477 25.8516C98.707 26.5286 99.1367 27.5085 99.1367 28.791C99.1367 30.1061 98.6322 31.1999 97.623 32.0723C96.6204 32.9382 95.2012 33.3711 93.3652 33.3711C91.4902 33.3711 90.0156 32.9447 88.9414 32.0918C87.8672 31.2324 87.3301 30.054 87.3301 28.5566H90.2012ZM104 21.0859H101.178V18.5176H104V21.0859ZM101.178 22.3555H104V33H101.178V22.3555ZM111.275 30.7148C111.926 30.7148 112.477 30.4707 112.926 29.9824C113.375 29.4876 113.6 28.7031 113.6 27.6289C113.6 26.6198 113.385 25.8516 112.955 25.3242C112.532 24.7969 111.962 24.5332 111.246 24.5332C110.27 24.5332 109.596 24.9922 109.225 25.9102C109.029 26.3984 108.932 27.0007 108.932 27.7168C108.932 28.3353 109.036 28.8854 109.244 29.3672C109.622 30.2656 110.299 30.7148 111.275 30.7148ZM110.582 22.1016C111.116 22.1016 111.581 22.1829 111.979 22.3457C112.656 22.6257 113.202 23.14 113.619 23.8887V22.3555H116.324V32.4531C116.324 33.8268 116.093 34.862 115.631 35.5586C114.837 36.7565 113.313 37.3555 111.061 37.3555C109.7 37.3555 108.59 37.0885 107.73 36.5547C106.871 36.0208 106.396 35.2233 106.305 34.1621H109.332C109.41 34.4876 109.537 34.722 109.713 34.8652C110.012 35.1191 110.517 35.2461 111.227 35.2461C112.229 35.2461 112.9 34.9108 113.238 34.2402C113.46 33.8105 113.57 33.0879 113.57 32.0723V31.3887C113.303 31.8444 113.017 32.1862 112.711 32.4141C112.158 32.8372 111.438 33.0488 110.553 33.0488C109.186 33.0488 108.092 32.5703 107.271 31.6133C106.458 30.6497 106.051 29.3477 106.051 27.707C106.051 26.125 106.445 24.7969 107.232 23.7227C108.02 22.6419 109.137 22.1016 110.582 22.1016ZM124.83 22.1016C125.93 22.1016 126.829 22.3913 127.525 22.9707C128.229 23.5436 128.58 24.4974 128.58 25.832V33H125.729V26.5254C125.729 25.9655 125.654 25.5358 125.504 25.2363C125.23 24.6895 124.71 24.416 123.941 24.416C122.997 24.416 122.35 24.8164 121.998 25.6172C121.816 26.0404 121.725 26.5807 121.725 27.2383V33H118.951V22.375H121.637V23.9277C121.995 23.3809 122.333 22.987 122.652 22.7461C123.225 22.3164 123.951 22.1016 124.83 22.1016ZM139.703 33H136.715V18.6055H139.703V33ZM148.189 22.1016C149.29 22.1016 150.188 22.3913 150.885 22.9707C151.588 23.5436 151.939 24.4974 151.939 25.832V33H149.088V26.5254C149.088 25.9655 149.013 25.5358 148.863 25.2363C148.59 24.6895 148.069 24.416 147.301 24.416C146.357 24.416 145.709 24.8164 145.357 25.6172C145.175 26.0404 145.084 26.5807 145.084 27.2383V33H142.311V22.375H144.996V23.9277C145.354 23.3809 145.693 22.987 146.012 22.7461C146.585 22.3164 147.311 22.1016 148.189 22.1016ZM165.104 22.3555H167.926L169.547 30.0215L171.207 22.3555H174.107L171.021 33H168.16L166.49 25.2461L164.801 33H161.91L158.922 22.3555H161.91L163.57 29.9922L165.104 22.3555ZM178.512 21.0859H175.689V18.5176H178.512V21.0859ZM175.689 22.3555H178.512V33H175.689V22.3555ZM180.123 24.4355V22.4531H181.607V19.4844H184.361V22.4531H186.09V24.4355H184.361V30.0605C184.361 30.4967 184.417 30.7702 184.527 30.8809C184.638 30.985 184.977 31.0371 185.543 31.0371C185.628 31.0371 185.715 31.0371 185.807 31.0371C185.904 31.0306 185.999 31.0241 186.09 31.0176V33.0977L184.771 33.1465C183.456 33.1921 182.558 32.9642 182.076 32.4629C181.764 32.1439 181.607 31.6523 181.607 30.9883V24.4355H180.123ZM193.746 22.082C194.404 22.082 194.999 22.196 195.533 22.4238C196.074 22.6517 196.516 23 196.861 23.4688C197.154 23.8659 197.333 24.276 197.398 24.6992C197.464 25.1159 197.496 25.7995 197.496 26.75V33H194.654V26.5254C194.654 25.9525 194.557 25.4902 194.361 25.1387C194.107 24.6439 193.626 24.3965 192.916 24.3965C192.18 24.3965 191.62 24.6439 191.236 25.1387C190.859 25.627 190.67 26.3268 190.67 27.2383V33H187.896V18.6543H190.67V23.7422C191.074 23.1237 191.539 22.694 192.066 22.4531C192.6 22.2057 193.16 22.082 193.746 22.082ZM205.895 18.625H216.1V21.1543H208.883V24.4648H215.201V26.9648H208.883V33H205.895V18.625ZM223.766 27.8242C223.59 27.9349 223.411 28.026 223.229 28.0977C223.053 28.1628 222.809 28.2246 222.496 28.2832L221.871 28.4004C221.285 28.5046 220.865 28.6315 220.611 28.7812C220.182 29.0352 219.967 29.429 219.967 29.9629C219.967 30.4382 220.097 30.7832 220.357 30.998C220.624 31.2064 220.947 31.3105 221.324 31.3105C221.923 31.3105 222.473 31.1348 222.975 30.7832C223.482 30.4316 223.746 29.7904 223.766 28.8594V27.8242ZM222.076 26.5254C222.59 26.4603 222.958 26.3789 223.18 26.2812C223.577 26.112 223.775 25.8483 223.775 25.4902C223.775 25.054 223.622 24.7546 223.316 24.5918C223.017 24.4225 222.574 24.3379 221.988 24.3379C221.331 24.3379 220.865 24.5007 220.592 24.8262C220.396 25.0671 220.266 25.3926 220.201 25.8027H217.516C217.574 24.8717 217.835 24.1068 218.297 23.5078C219.033 22.5703 220.296 22.1016 222.086 22.1016C223.251 22.1016 224.286 22.3327 225.191 22.7949C226.096 23.2572 226.549 24.1296 226.549 25.4121V30.2949C226.549 30.6335 226.555 31.0436 226.568 31.5254C226.588 31.89 226.643 32.1374 226.734 32.2676C226.826 32.3978 226.962 32.5052 227.145 32.5898V33H224.117C224.033 32.7852 223.974 32.5833 223.941 32.3945C223.909 32.2057 223.883 31.9909 223.863 31.75C223.479 32.1667 223.036 32.5215 222.535 32.8145C221.936 33.1595 221.259 33.332 220.504 33.332C219.54 33.332 218.743 33.0586 218.111 32.5117C217.486 31.9583 217.174 31.1771 217.174 30.168C217.174 28.8594 217.678 27.9121 218.688 27.3262C219.241 27.0072 220.055 26.7793 221.129 26.6426L222.076 26.5254ZM235.387 26.1738C235.335 25.7767 235.201 25.4186 234.986 25.0996C234.674 24.6699 234.189 24.4551 233.531 24.4551C232.594 24.4551 231.952 24.9206 231.607 25.8516C231.425 26.3464 231.334 27.0039 231.334 27.8242C231.334 28.6055 231.425 29.2337 231.607 29.709C231.939 30.5944 232.564 31.0371 233.482 31.0371C234.133 31.0371 234.596 30.8613 234.869 30.5098C235.143 30.1582 235.309 29.7025 235.367 29.1426H238.209C238.144 29.9889 237.838 30.7897 237.291 31.5449C236.419 32.7624 235.126 33.3711 233.414 33.3711C231.702 33.3711 230.442 32.8633 229.635 31.8477C228.827 30.832 228.424 29.5137 228.424 27.8926C228.424 26.0632 228.87 24.6406 229.762 23.625C230.654 22.6094 231.884 22.1016 233.453 22.1016C234.788 22.1016 235.878 22.401 236.725 23C237.577 23.599 238.082 24.6569 238.238 26.1738H235.387ZM244.361 24.3672C243.717 24.3672 243.215 24.569 242.857 24.9727C242.506 25.3763 242.285 25.9232 242.193 26.6133H246.52C246.474 25.8776 246.249 25.321 245.846 24.9434C245.449 24.5592 244.954 24.3672 244.361 24.3672ZM244.361 22.0723C245.247 22.0723 246.044 22.2383 246.754 22.5703C247.464 22.9023 248.049 23.4264 248.512 24.1426C248.928 24.7741 249.199 25.5065 249.322 26.3398C249.394 26.8281 249.423 27.5312 249.41 28.4492H242.125C242.164 29.5169 242.499 30.2656 243.131 30.6953C243.515 30.9622 243.977 31.0957 244.518 31.0957C245.09 31.0957 245.556 30.9329 245.914 30.6074C246.109 30.4316 246.282 30.1875 246.432 29.875H249.273C249.202 30.5065 248.873 31.1478 248.287 31.7988C247.376 32.834 246.1 33.3516 244.459 33.3516C243.105 33.3516 241.91 32.9154 240.875 32.043C239.84 31.1706 239.322 29.7513 239.322 27.7852C239.322 25.9427 239.788 24.5299 240.719 23.5469C241.656 22.5638 242.87 22.0723 244.361 22.0723ZM257.047 22.1211C258.447 22.1211 259.54 22.6257 260.328 23.6348C261.122 24.6439 261.52 25.946 261.52 27.541C261.52 29.1947 261.129 30.5651 260.348 31.6523C259.566 32.7396 258.476 33.2832 257.076 33.2832C256.197 33.2832 255.491 33.1074 254.957 32.7559C254.638 32.5475 254.293 32.1829 253.922 31.6621V33H251.197V18.625H253.971V23.7422C254.322 23.2474 254.71 22.8698 255.133 22.6094C255.634 22.2839 256.272 22.1211 257.047 22.1211ZM256.334 30.9883C257.05 30.9883 257.607 30.6986 258.004 30.1191C258.401 29.5397 258.6 28.778 258.6 27.834C258.6 27.0788 258.502 26.4538 258.307 25.959C257.936 25.0215 257.252 24.5527 256.256 24.5527C255.247 24.5527 254.553 25.0117 254.176 25.9297C253.98 26.418 253.883 27.0495 253.883 27.8242C253.883 28.7357 254.085 29.4909 254.488 30.0898C254.892 30.6888 255.507 30.9883 256.334 30.9883ZM268.297 31.0371C269.111 31.0371 269.736 30.7474 270.172 30.168C270.608 29.5885 270.826 28.765 270.826 27.6973C270.826 26.6296 270.608 25.8092 270.172 25.2363C269.736 24.6569 269.111 24.3672 268.297 24.3672C267.483 24.3672 266.855 24.6569 266.412 25.2363C265.976 25.8092 265.758 26.6296 265.758 27.6973C265.758 28.765 265.976 29.5885 266.412 30.168C266.855 30.7474 267.483 31.0371 268.297 31.0371ZM273.746 27.6973C273.746 29.2598 273.297 30.5977 272.398 31.7109C271.5 32.8177 270.136 33.3711 268.307 33.3711C266.477 33.3711 265.113 32.8177 264.215 31.7109C263.316 30.5977 262.867 29.2598 262.867 27.6973C262.867 26.1608 263.316 24.8294 264.215 23.7031C265.113 22.5768 266.477 22.0137 268.307 22.0137C270.136 22.0137 271.5 22.5768 272.398 23.7031C273.297 24.8294 273.746 26.1608 273.746 27.6973ZM280.523 31.0371C281.337 31.0371 281.962 30.7474 282.398 30.168C282.835 29.5885 283.053 28.765 283.053 27.6973C283.053 26.6296 282.835 25.8092 282.398 25.2363C281.962 24.6569 281.337 24.3672 280.523 24.3672C279.71 24.3672 279.081 24.6569 278.639 25.2363C278.202 25.8092 277.984 26.6296 277.984 27.6973C277.984 28.765 278.202 29.5885 278.639 30.168C279.081 30.7474 279.71 31.0371 280.523 31.0371ZM285.973 27.6973C285.973 29.2598 285.523 30.5977 284.625 31.7109C283.727 32.8177 282.363 33.3711 280.533 33.3711C278.704 33.3711 277.34 32.8177 276.441 31.7109C275.543 30.5977 275.094 29.2598 275.094 27.6973C275.094 26.1608 275.543 24.8294 276.441 23.7031C277.34 22.5768 278.704 22.0137 280.533 22.0137C282.363 22.0137 283.727 22.5768 284.625 23.7031C285.523 24.8294 285.973 26.1608 285.973 27.6973ZM287.945 18.6543H290.68V26.4082L294.146 22.4043H297.594L293.873 26.4766L297.74 33H294.381L291.832 28.4492L290.68 29.6504V33H287.945V18.6543Z" fill="white"/>
</svg>
